<svg height="512pt" viewBox="0 0 512 512" width="512pt" xmlns="http://www.w3.org/2000/svg"><path d="m256 0v512c141.386719 0 256-114.613281 256-256s-114.613281-256-256-256zm0 0" fill="#da5d23"/><path d="m481.09375 256c0-141.386719-100.777344-256-225.09375-256-141.386719 0-256 114.613281-256 256s114.613281 256 256 256c124.316406 0 225.09375-114.613281 225.09375-256zm0 0" fill="#ff6a2e"/><path d="m256 30.90625v450.1875c124.316406 0 225.09375-100.777344 225.09375-225.09375s-100.777344-225.09375-225.09375-225.09375zm0 0" fill="#ff8c46"/><path d="m450.1875 256c0-124.316406-86.941406-225.09375-194.1875-225.09375-124.316406 0-225.09375 100.777344-225.09375 225.09375s100.777344 225.09375 225.09375 225.09375c107.246094 0 194.1875-100.777344 194.1875-225.09375zm0 0" fill="#ffa747"/><path d="m398.777344 124.152344c3.015625-3.019532 3.015625-7.910156 0-10.929688-3.019532-3.015625-7.910156-3.015625-10.929688 0l-22.582031 22.582032-25.496094-25.496094 17.691407-17.6875c3.015624-3.019532 3.015624-7.910156 0-10.925782-3.019532-3.019531-7.910157-3.019531-10.925782 0l-17.691406 17.6875-25.496094-25.496093 1.675782-1.675781c3.019531-3.019532 3.019531-7.910157 0-10.929688-3.015626-3.015625-7.90625-3.015625-10.925782 0l-1.675781 1.679688-4.847656-4.847657c-3.019531-3.019531-7.910157-3.019531-10.925781 0-3.019532 3.015625-3.019532 7.90625 0 10.925781l4.84375 4.847657-25.492188 25.496093-25.496094-25.496093 4.847656-4.847657c3.015626-3.015624 3.015626-7.90625 0-10.925781-3.019531-3.019531-7.910156-3.015625-10.925781 0l-4.847656 4.847657-1.679687-1.675782c-3.015626-3.019531-7.90625-3.019531-10.925782 0-3.019531 3.015625-3.015625 7.90625 0 10.925782l1.675782 1.675781-25.496094 25.496093-17.6875-17.6875c-3.019532-3.019531-7.910156-3.019531-10.925782 0-3.019531 3.015626-3.019531 7.90625 0 10.925782l17.6875 17.691406-25.496093 25.496094-22.582031-22.582032c-3.015626-3.019531-7.90625-3.019531-10.925782 0-3.019531 3.015626-3.019531 7.90625 0 10.925782l22.582032 22.582031-25.496094 25.496094-17.691406-17.691407c-3.015626-3.015624-7.90625-3.015624-10.925782 0-3.019531 3.019532-3.015625 7.910157 0 10.929688l17.6875 17.6875-25.496094 25.496094-1.675781-1.675782c-3.015625-3.019531-7.910156-3.019531-10.925781 0-3.019531 3.015626-3.019531 7.90625 0 10.925782l1.675781 1.675781-4.847656 4.847656c-3.015625 3.019531-3.015625 7.910157 0 10.929688 3.019531 3.015625 7.910156 3.015625 10.929687 0l4.84375-4.847657 25.5 25.492188-25.496093 25.496094-4.847657-4.847656c-3.015624-3.015626-7.90625-3.015626-10.925781 0-3.015625 3.019531-3.015625 7.910156 0 10.925781l4.847657 4.847656-1.675782 1.679687c-3.019531 3.015626-3.019531 7.90625 0 10.925782 3.015625 3.015625 7.90625 3.015625 10.925782 0l1.675781-1.675782 25.496093 25.496094-17.6875 17.6875c-3.019531 3.019532-3.019531 7.910156 0 10.925782 3.015626 3.019531 7.90625 3.019531 10.925782 0l17.691406-17.6875 25.496094 25.496093-22.582032 22.582031c-3.019531 3.015626-3.019531 7.90625 0 10.925782 3.015626 3.019531 7.90625 3.019531 10.925782 0l22.582031-22.582032 25.496094 25.496094-17.691407 17.691406c-3.015624 3.015626-3.015624 7.90625 0 10.925782 3.019532 3.015625 7.910157 3.015625 10.929688 0l17.6875-17.6875 25.496094 25.496094-1.675782 1.675781c-3.019531 3.015625-3.019531 7.910156 0 10.925781 3.015626 3.019531 7.90625 3.019531 10.925782 0l1.675781-1.675781 4.847656 4.847656c3.019531 3.015625 7.910157 3.015625 10.929688 0 3.015625-3.019531 3.015625-7.910156 0-10.929687l-4.847657-4.84375 25.496094-25.496094 25.496094 25.496094-4.847656 4.84375c-3.019532 3.019531-3.019532 7.910156 0 10.929687 3.015625 3.015625 7.910156 3.015625 10.925781 0l4.847656-4.847656 1.675781 1.675781c3.019532 3.019531 7.910157 3.019531 10.929688 0 3.015625-3.015625 3.015625-7.90625 0-10.925781l-1.679688-1.675781 25.496094-25.496094 17.691406 17.6875c3.015626 3.015625 7.90625 3.015625 10.925782 0 3.019531-3.015625 3.019531-7.910156 0-10.925782l-17.6875-17.691406 25.496094-25.496094 22.582031 22.582032c3.015625 3.019531 7.90625 3.019531 10.925781 0 3.015625-3.015625 3.015625-7.90625 0-10.925782l-22.582031-22.582031 25.496093-25.496093 17.6875 17.6875c3.019532 3.019531 7.910157 3.019531 10.929688 0 3.015625-3.015626 3.015625-7.90625 0-10.925782l-17.691406-17.6875 25.496094-25.496094 1.679687 1.675782c3.015625 3.015625 7.90625 3.015625 10.925781 0 3.015625-3.015625 3.015625-7.910156 0-10.925782l-1.675781-1.679687 4.847656-4.847656c3.015625-3.015625 3.015625-7.90625 0-10.925781-3.019531-3.015626-7.910156-3.015626-10.929687 0l-4.847656 4.847656-25.5-25.496094 25.496093-25.496094 4.847657 4.847656c3.015624 3.015626 7.90625 3.015626 10.925781 0 3.015625-3.019531 3.015625-7.910156 0-10.925781l-4.847657-4.847656 1.675782-1.679687c3.019531-3.015626 3.019531-7.90625 0-10.925782-3.015625-3.015625-7.90625-3.015625-10.925782 0l-1.675781 1.675782-25.496093-25.496094 17.6875-17.6875c3.019531-3.019532 3.019531-7.910156 0-10.925782-3.015626-3.019531-7.90625-3.019531-10.925782 0l-17.691406 17.6875-25.496094-25.496093zm-44.4375 22.582031-25.496094 25.496094-25.496094-25.496094 25.496094-25.496094zm-25.496094 171.183594-25.496094-25.496094 25.496094-25.496094 9.105469 9.105469c3.019531 3.019531 7.910156 3.019531 10.929687 0 3.015625-3.015625 3.015625-7.90625 0-10.925781l-9.105468-9.105469 25.496093-25.496094 25.496094 25.496094zm-83.769531-134.761719-25.496094 25.496094-25.496094-25.496094 25.496094-25.496094zm-14.570313-36.421875 25.496094-25.496094 25.496094 25.496094-25.496094 25.496094zm36.421875 109.265625 25.496094-25.496094 25.496094 25.496094-25.496094 25.496094zm14.570313 36.421875-25.496094 25.496094-25.496094-25.496094 25.496094-25.496094zm-25.496094-47.347656-25.496094-25.496094 25.496094-25.496094 25.496094 25.496094zm-47.347656-25.496094-25.496094 25.496094-25.496094-25.496094 25.496094-25.496094zm10.925781 10.925781 25.496094 25.496094-25.496094 25.496094-25.496094-25.496094zm-10.925781 61.917969-25.496094 25.496094-25.496094-25.496094 25.496094-25.496094zm10.925781 10.925781 25.496094 25.496094-25.496094 25.496094-25.496094-25.496094zm36.421875 36.421875 25.496094 25.496094-25.496094 25.496094-25.496094-25.496094zm10.925781-10.925781 25.496094-25.496094 25.496094 25.496094-25.496094 25.496094zm61.917969-83.769531-25.496094-25.496094 25.496094-25.496094 25.496094 25.496094zm-36.421875-36.421875-25.496094-25.496094 25.496094-25.496094 25.496094 25.496094zm0-123.835938 25.496094 25.496094-25.496094 25.496094-25.496094-25.496094zm-72.84375 0 25.496094 25.496094-25.496094 25.496094-25.496094-25.496094zm-36.421875 36.421875 25.496094 25.496094-25.496094 25.496094-25.496094-25.496094zm-36.421875 36.421875 25.496094 25.496094-25.496094 25.496094-25.496094-25.496094zm-61.917969 61.917969 25.496094-25.496094 25.496094 25.496094-25.496094 25.496094zm0 72.84375 61.917969-61.917969 25.496094 25.496094-25.496094 25.496094-9.105469-9.105469c-3.019531-3.019531-7.910156-3.019531-10.929687 0-3.015625 3.015625-3.015625 7.910156 0 10.925781l9.105469 9.105469-25.496094 25.496094zm36.421875 36.421875 25.496094-25.496094 25.496094 25.496094-25.496094 25.496094zm36.421875 36.421875 25.496094-25.496094 25.496094 25.496094-25.496094 25.496094zm61.917969 61.917969-25.496094-25.496094 25.496094-25.496094 25.496094 25.496094zm72.84375 0-25.496094-25.496094 25.496094-25.496094 25.496094 25.496094zm36.421875-36.421875-25.496094-25.496094 25.496094-25.496094 25.496094 25.496094zm36.421875-36.421875-25.496094-25.496094 25.496094-25.496094 25.496094 25.496094zm61.917969-61.917969-25.496094 25.496094-25.496094-25.496094 25.496094-25.496094zm0-72.84375-25.496094 25.496094-25.496094-25.496094 25.496094-25.496094zm-36.421875-36.421875-25.496094 25.496094-25.496094-25.496094 25.496094-25.496094zm0 0" fill="#ff8c46"/></svg>